
      <svg
        width="300"
        height="285"
        viewBox="0 0 300 285"
        fill="none"
        xmlns="http://www.w3.org/2000/svg"
      >
        <style>
          .header {
            font: 600 18px 'Segoe UI', Ubuntu, Sans-Serif;
            fill: #2f80ed;
            animation: fadeInAnimation 0.8s ease-in-out forwards;
          }
          
    .lang-name { font: 400 11px 'Inter', Ubuntu, Sans-Serif; fill: #333 }
  

          
        </style>

        undefined

        <rect
          data-testid="card-bg"
          x="0.5"
          y="0.5"
          rx="4.5"
          height="99%"
          stroke="#E4E2E2"
          width="299"
          fill="#fffefe"
          stroke-opacity="1"
        />

        
      <g
        data-testid="card-title"
        transform="translate(25, 35)"
      >
        <g transform="translate(0, 0)">
      <text
        x="0"
        y="0"
        class="header"
        data-testid="header"
      >My Programming Languages</text>
    </g>
      </g>
    

        <g
          data-testid="main-card-body"
          transform="translate(0, 55)"
        >
          
    <svg data-testid="lang-items" x="25">
      <g transform="translate(0, 0)">
    <text data-testid="lang-name" x="2" y="15" class="lang-name">TypeScript</text>
    <text x="215" y="34" class="lang-name">36.24%</text>
    <svg width="205">
      <rect rx="5" ry="5" x="0" y="25" width="205" height="8" fill="#ddd"></rect>
      <rect
        height="8"
        fill="#3178c6"
        rx="5" ry="5" x="0" y="25"
        data-testid="lang-progress"
        width="36.24%"
      >
      </rect>
    </svg>
  </g><g transform="translate(0, 40)">
    <text data-testid="lang-name" x="2" y="15" class="lang-name">JavaScript</text>
    <text x="215" y="34" class="lang-name">30.11%</text>
    <svg width="205">
      <rect rx="5" ry="5" x="0" y="25" width="205" height="8" fill="#ddd"></rect>
      <rect
        height="8"
        fill="#f1e05a"
        rx="5" ry="5" x="0" y="25"
        data-testid="lang-progress"
        width="30.11%"
      >
      </rect>
    </svg>
  </g><g transform="translate(0, 80)">
    <text data-testid="lang-name" x="2" y="15" class="lang-name">HTML</text>
    <text x="215" y="34" class="lang-name">12.88%</text>
    <svg width="205">
      <rect rx="5" ry="5" x="0" y="25" width="205" height="8" fill="#ddd"></rect>
      <rect
        height="8"
        fill="#e34c26"
        rx="5" ry="5" x="0" y="25"
        data-testid="lang-progress"
        width="12.88%"
      >
      </rect>
    </svg>
  </g><g transform="translate(0, 120)">
    <text data-testid="lang-name" x="2" y="15" class="lang-name">CSS</text>
    <text x="215" y="34" class="lang-name">11.07%</text>
    <svg width="205">
      <rect rx="5" ry="5" x="0" y="25" width="205" height="8" fill="#ddd"></rect>
      <rect
        height="8"
        fill="#663399"
        rx="5" ry="5" x="0" y="25"
        data-testid="lang-progress"
        width="11.07%"
      >
      </rect>
    </svg>
  </g><g transform="translate(0, 160)">
    <text data-testid="lang-name" x="2" y="15" class="lang-name">Python</text>
    <text x="215" y="34" class="lang-name">9.69%</text>
    <svg width="205">
      <rect rx="5" ry="5" x="0" y="25" width="205" height="8" fill="#ddd"></rect>
      <rect
        height="8"
        fill="#3572A5"
        rx="5" ry="5" x="0" y="25"
        data-testid="lang-progress"
        width="9.69%"
      >
      </rect>
    </svg>
  </g>
    </svg>
  
        </g>
      </svg>
    